<svg xmlns="http://www.w3.org/2000/svg" version="1.0" preserveAspectRatio="xMidYMid meet" viewBox="294.45 206.29 603.46 681.49">

<g transform="translate(0.000000,1200.000000) scale(0.100000,-0.100000)" fill="#ffffff" stroke="none">
<path d="M5695 9934 c-480 -51 -871 -186 -1240 -428 -537 -353 -923 -872 -1110 -1490 -77 -257 -110 -490 -109 -781 1 -282 34 -510 110 -762 166 -551 509 -1038 969 -1378 147 -109 236 -164 385 -239 663 -337 1414 -388 2113 -147 761 264 1376 877 1646 1642 281 798 175 1684 -286 2378 -431 648 -1096 1069 -1878 1187 -96 15 -513 27 -600 18z m491 -125 c538 -52 1055 -283 1466 -656 573 -520 884 -1280 838 -2051 -41 -685 -327 -1284 -835 -1750 -386 -355 -859 -574 -1410 -654 -139 -20 -542 -17 -685 5 -243 38 -448 96 -648 182 -834 361 -1406 1116 -1538 2030 -22 148 -25 505 -5 645 91 665 398 1233 886 1645 416 350 921 562 1450 608 95 8 380 6 481 -4z"/>
<path d="M5454 8175 c-128 -23 -233 -64 -344 -136 -79 -50 -215 -182 -267 -259 -70 -104 -125 -244 -147 -372 l-12 -71 -60 -17 c-32 -8 -82 -27 -109 -40 -61 -29 -184 -149 -215 -210 -153 -299 -8 -638 315 -737 57 -17 125 -18 1305 -18 l1245 0 76 26 c188 64 334 224 386 422 21 81 21 224 -1 306 -63 236 -249 396 -507 436 -33 5 -39 11 -74 82 -69 141 -206 247 -364 283 -67 16 -219 8 -282 -15 l-47 -16 -58 61 c-210 220 -543 329 -840 275z m323 -141 c197 -40 372 -156 506 -335 l28 -37 82 37 c77 34 88 36 187 36 95 0 110 -3 158 -28 107 -56 174 -140 213 -263 l22 -71 99 -6 c86 -5 109 -11 171 -41 241 -116 335 -417 201 -647 -58 -98 -142 -166 -256 -205 -51 -18 -109 -19 -1288 -19 l-1235 0 -65 31 c-224 106 -291 382 -140 573 64 80 152 122 312 146 35 5 37 8 43 53 16 129 28 199 45 246 86 251 295 445 560 520 105 29 245 33 357 10z"/>
<path d="M3560 3580 l0 -450 55 0 55 0 0 450 0 450 -55 0 -55 0 0 -450z"/>
<path d="M5600 3865 l0 -166 -27 19 c-127 88 -306 30 -374 -120 -20 -46 -24 -69 -24 -168 0 -130 18 -186 78 -248 78 -80 224 -77 320 8 l37 32 0 -27 c0 -49 16 -65 65 -65 l45 0 -2 448 -3 447 -57 3 -58 3 0 -166z m-63 -214 c23 -11 46 -28 52 -39 6 -12 11 -81 11 -164 l0 -144 -32 -31 c-47 -44 -70 -53 -133 -53 -51 0 -60 3 -90 33 -40 40 -55 89 -55 182 0 87 13 135 47 176 50 59 124 74 200 40z"/>
<path d="M7286 3999 c-53 -42 -21 -139 46 -139 43 0 78 36 78 80 0 30 -6 43 -26 59 -15 12 -37 21 -49 21 -12 0 -34 -9 -49 -21z"/>
<path d="M7635 3940 c-3 -5 -11 -49 -17 -97 -6 -48 -14 -92 -19 -97 -5 -5 -28 -12 -51 -15 -35 -5 -44 -10 -46 -29 -5 -34 15 -52 59 -52 l39 0 0 -207 c0 -227 6 -255 61 -296 52 -38 167 -31 220 12 22 18 23 21 9 46 -18 34 -37 42 -61 27 -10 -7 -35 -12 -54 -12 -57 0 -65 32 -65 250 l0 180 90 0 90 0 0 45 0 45 -90 0 -90 0 0 105 0 105 -34 0 c-19 0 -37 -4 -41 -10z"/>
<path d="M3147 3746 c-145 -41 -225 -193 -197 -373 29 -181 157 -275 332 -243 68 12 142 53 155 86 6 17 -23 54 -44 54 -7 0 -31 -12 -53 -26 -88 -58 -195 -36 -246 52 -26 45 -29 58 -29 144 0 86 3 100 27 142 31 52 91 88 147 88 19 0 61 -12 94 -27 l60 -27 24 28 c22 26 23 30 9 45 -50 55 -187 83 -279 57z"/>
<path d="M4019 3746 c-135 -36 -209 -145 -209 -306 0 -137 52 -234 155 -285 52 -26 70 -30 140 -29 129 1 205 46 254 148 54 110 50 249 -9 353 -60 105 -198 155 -331 119z m161 -98 c60 -31 91 -87 98 -179 9 -127 -30 -213 -112 -244 -90 -35 -179 3 -218 93 -27 60 -27 184 0 244 44 99 137 133 232 86z"/>
<path d="M7038 3742 c-20 -9 -51 -34 -67 -56 -33 -41 -38 -38 -43 24 -3 34 -4 35 -50 38 l-48 3 0 -310 0 -311 55 0 55 0 0 193 0 192 29 51 c38 65 82 88 150 79 45 -6 49 -5 55 17 13 51 7 85 -16 92 -39 10 -82 6 -120 -12z"/>
<path d="M8175 3749 c-128 -28 -205 -128 -213 -275 -13 -238 133 -381 351 -345 109 18 194 72 171 108 -23 37 -41 39 -99 10 -69 -34 -119 -42 -172 -28 -77 21 -124 80 -138 174 l-7 47 215 0 c245 0 230 -6 217 91 -23 165 -158 255 -325 218z m152 -99 c40 -24 62 -57 70 -104 l6 -36 -163 0 -162 0 6 33 c20 103 153 162 243 107z"/>
<path d="M8845 3746 c-32 -14 -94 -78 -96 -99 0 -7 -6 13 -12 43 l-12 55 -45 0 -45 0 -3 -307 -2 -308 60 0 60 0 0 204 c0 194 1 204 23 236 39 58 71 75 140 75 l62 0 3 51 c3 46 1 52 -20 58 -36 9 -80 6 -113 -8z"/>
<path d="M4522 3513 c3 -227 4 -240 27 -286 14 -29 38 -58 60 -73 75 -49 195 -40 276 21 l43 34 9 -37 c8 -36 11 -37 56 -40 l47 -3 0 310 0 311 -60 0 -60 0 0 -229 0 -230 -37 -30 c-51 -42 -126 -58 -175 -38 -66 28 -72 52 -76 305 l-4 222 -55 0 -54 0 3 -237z"/>
<path d="M5820 3738 c0 -7 44 -146 97 -310 l97 -298 47 0 c25 0 51 6 57 13 5 6 42 112 82 233 l73 222 77 -232 76 -231 54 0 54 0 98 300 c54 165 98 303 98 308 0 11 -95 8 -106 -3 -6 -6 -42 -114 -79 -239 l-69 -229 -42 137 c-24 75 -58 181 -76 236 l-33 100 -48 3 c-38 3 -49 0 -54 -15 -4 -10 -40 -117 -80 -238 -39 -121 -74 -213 -76 -205 -3 8 -33 109 -67 225 -34 115 -66 215 -72 222 -14 17 -108 17 -108 1z"/>
<path d="M7280 3440 l0 -310 55 0 55 0 0 310 0 310 -55 0 -55 0 0 -310z"/>
</g>
</svg>
